<?xml version="1.0" encoding="UTF-8"?>
<svg width="429px" height="32px" viewBox="0 0 429 32" version="1.1" xmlns="http://www.w3.org/2000/svg" xmlns:xlink="http://www.w3.org/1999/xlink">
    <!-- Generator: Sketch 46.1 (44463) - http://www.bohemiancoding.com/sketch -->
    <title>fashion journal@2x</title>
    <desc>Created with Sketch.</desc>
    <defs></defs>
    <g id="Page-1" stroke="none" stroke-width="1" fill="none" fill-rule="evenodd">
        <path d="M21.4073535,5.77777778 L21.4073535,0.444444444 L0,0.444444444 L0,31.5555556 L5.94648708,31.5555556 L5.94648708,19.2 L19.6013833,19.2 L19.6013833,13.8222222 L5.94648708,13.8222222 L5.94648708,5.77777778 L21.4073535,5.77777778 Z M45.6538041,31.5555556 L43.4073535,25.3333333 L30.5012741,25.3333333 L28.2107754,31.5555556 L22,31.5555556 L33.8929742,0.444444444 L40.2358937,0.444444444 L52.1729159,31.5555556 L45.6538041,31.5555556 Z M32.3072443,20.3555556 L41.6454314,20.3555556 L37.0203859,7.51111111 L32.3072443,20.3555556 Z M67.8740444,32 C74.9217328,32 79.8110666,28.2222222 79.8110666,22.0444444 C79.8110666,17.5111111 77.2562796,14.4444444 71.706225,13.3333333 L65.2752093,12 C62.6763742,11.4666667 62.0597015,10.0444444 62.0597015,8.84444444 C62.0597015,6.4 64.4823444,5.06666667 67.3014197,5.06666667 C70.5169276,5.06666667 72.587186,6.71111111 73.424099,9.24444444 L78.8420095,7.2 C77.1681835,2.75555556 73.1598107,0 67.3454678,0 C60.826356,0 56.0691664,3.51111111 56.0691664,9.33333333 C56.0691664,13.5555556 58.5799054,16.8444444 63.7775755,17.8666667 L69.9002548,19.0222222 C72.9836185,19.6 73.8205315,21.1111111 73.8205315,22.6222222 C73.8205315,25.2888889 71.3538406,26.9333333 67.8740444,26.9333333 C64.0418639,26.9333333 61.3989807,24.9333333 60.3418274,21.5555556 L54.923917,23.7777778 C56.8620313,28.8888889 61.4430288,32 67.8740444,32 Z M105.643247,0.444444444 L105.643247,13.0666667 L91.7681107,13.0666667 L91.7681107,0.444444444 L85.8216236,0.444444444 L85.8216236,31.5555556 L91.7681107,31.5555556 L91.7681107,18.4444444 L105.643247,18.4444444 L105.643247,31.5555556 L111.589734,31.5555556 L111.589734,0.444444444 L105.643247,0.444444444 Z M119.141973,31.5555556 L125.08846,31.5555556 L125.08846,0.444444444 L119.141973,0.444444444 L119.141973,31.5555556 Z M146.86822,32 C137.485985,32 131.231161,25.4222222 131.231161,16 C131.231161,6.57777778 137.485985,0 146.86822,0 C156.250455,0 162.505278,6.57777778 162.505278,16 C162.505278,25.4222222 156.250455,32 146.86822,32 Z M146.86822,26.6222222 C152.726611,26.6222222 156.558791,22.2666667 156.558791,16 C156.558791,9.73333333 152.726611,5.33333333 146.86822,5.33333333 C141.009829,5.33333333 137.177648,9.73333333 137.177648,16 C137.177648,22.2666667 141.009829,26.6222222 146.86822,26.6222222 Z M189.262468,0.444444444 L189.262468,22.2666667 L176.048052,0.444444444 L168.64798,0.444444444 L168.64798,31.5555556 L174.374226,31.5555556 L174.374226,8.48888889 L188.205315,31.5555556 L194.988715,31.5555556 L194.988715,0.444444444 L189.262468,0.444444444 Z M228.901711,0.444444444 L228.901711,21.1111111 C228.901711,24.5777778 227.051693,26.5777778 224.100473,26.5777778 C220.973062,26.5777778 218.946851,24.4444444 218.946851,20.8888889 L218.946851,17.2888889 L213.044412,17.2888889 L213.044412,20.9777778 C213.044412,27.7777778 217.361121,31.9555556 224.056425,31.9555556 C230.663633,31.9555556 234.848198,27.7777778 234.848198,20.9777778 L234.848198,0.444444444 L228.901711,0.444444444 Z M256.451766,32 C247.06953,32 240.814707,25.4222222 240.814707,16 C240.814707,6.57777778 247.06953,0 256.451766,0 C265.834001,0 272.088824,6.57777778 272.088824,16 C272.088824,25.4222222 265.834001,32 256.451766,32 Z M256.451766,26.6222222 C262.310157,26.6222222 266.142337,22.2666667 266.142337,16 C266.142337,9.73333333 262.310157,5.33333333 256.451766,5.33333333 C250.593375,5.33333333 246.761194,9.73333333 246.761194,16 C246.761194,22.2666667 250.593375,26.6222222 256.451766,26.6222222 Z M297.436476,0.444444444 L297.436476,18.4 C297.436476,23.6 294.925737,26.6222222 290.476884,26.6222222 C286.028031,26.6222222 283.56134,23.6 283.56134,18.4 L283.56134,0.444444444 L277.614853,0.444444444 L277.614853,18.4888889 C277.614853,26.8444444 282.327994,32 290.476884,32 C298.669822,32 303.382963,26.8444444 303.382963,18.4888889 L303.382963,0.444444444 L297.436476,0.444444444 Z M333.575901,23.1555556 L335.425919,31.5555556 L329.391336,31.5555556 L327.981798,24.8888889 C327.232981,21.0666667 325.338915,19.3777778 321.418639,19.3777778 L316.661449,19.3777778 L316.661449,31.5555556 L310.714962,31.5555556 L310.714962,0.444444444 L324.193666,0.444444444 C330.756826,0.444444444 334.809246,3.64444444 334.809246,9.28888889 C334.809246,13.1555556 332.91518,15.8666667 329.567528,17.2 C331.725883,18.4 332.959228,20.4444444 333.575901,23.1555556 Z M316.661449,14.0888889 L324.149618,14.0888889 C327.100837,14.0888889 328.862759,12.5777778 328.862759,9.95555556 C328.862759,7.33333333 327.100837,5.77777778 324.193666,5.77777778 L316.661449,5.77777778 L316.661449,14.0888889 Z M361.962869,0.444444444 L361.962869,22.2666667 L348.748453,0.444444444 L341.34838,0.444444444 L341.34838,31.5555556 L347.074627,31.5555556 L347.074627,8.48888889 L360.905715,31.5555556 L367.689115,31.5555556 L367.689115,0.444444444 L361.962869,0.444444444 Z M396.340371,31.5555556 L394.093921,25.3333333 L381.187841,25.3333333 L378.897343,31.5555556 L372.686567,31.5555556 L384.579541,0.444444444 L390.922461,0.444444444 L402.859483,31.5555556 L396.340371,31.5555556 Z M382.993811,20.3555556 L392.331999,20.3555556 L387.706953,7.51111111 L382.993811,20.3555556 Z M413.759374,26.1777778 L413.759374,0.444444444 L407.812887,0.444444444 L407.812887,31.5555556 L429,31.5555556 L429,26.1777778 L413.759374,26.1777778 Z" id="fashion-journal" fill="#000000"></path>
    </g>
</svg>